<?xml version="1.0" encoding="utf-8"?>
<!-- Generator: Adobe Illustrator 17.1.0, SVG Export Plug-In . SVG Version: 6.00 Build 0)  -->
<!DOCTYPE svg PUBLIC "-//W3C//DTD SVG 1.1//EN" "http://www.w3.org/Graphics/SVG/1.1/DTD/svg11.dtd">
<svg version="1.1" id="Layer_1" xmlns="http://www.w3.org/2000/svg" xmlns:xlink="http://www.w3.org/1999/xlink" x="0px" y="0px"
	 viewBox="0 0 216 288" enable-background="new 0 0 216 288" xml:space="preserve">
<g>
	<path fill="#FFFFFF" d="M108.3,252.3c-1.1,0-2.3-0.4-3.2-1.1c-20.6-15.9-37.8-33.8-51.1-53.1c-12.2-17.7-20.9-36.2-25.8-55
		c-6-22.6-5.3-87.4-5.2-90.2c0-2.8,2.3-5.1,5.2-5.1h158.6c2.8,0,5.2,2.3,5.2,5.2c0,5.4,0,10.7,0.1,15.8l0,0.1
		c0.2,24.4,0.4,45.5-4.6,63.7c-12.1,44.5-32.1,74.4-46.7,91.6c-16,18.9-29.1,27.1-29.7,27.4C110.2,252,109.2,252.3,108.3,252.3z"/>
</g>
<g>
	<path fill="#6E3B00" d="M108.3,252.3c-1.1,0-2.3-0.4-3.2-1.1c-20.6-15.9-37.8-33.8-51.1-53.1c-12.2-17.7-20.9-36.2-25.8-55
		c-6-22.6-5.3-87.4-5.2-90.2c0-2.8,2.3-5.1,5.2-5.1h158.6c2.8,0,5.2,2.3,5.2,5.2c0,5.4,0,10.7,0.1,15.8l0,0.1
		c0.2,24.4,0.4,45.5-4.6,63.7c-12.1,44.5-32.1,74.4-46.7,91.6c-16,18.9-29.1,27.1-29.7,27.4C110.2,252,109.2,252.3,108.3,252.3z
		 M28.1,52c-0.5,0-0.9,0.4-0.9,0.9c0,2.7-0.7,67,5.1,89c4.8,18.4,13.3,36.4,25.2,53.7c13.1,19,29.9,36.5,50.2,52.2
		c0.4,0.3,0.7,0.2,1,0.1c0.5-0.3,13.1-8.2,28.6-26.5c14.3-16.9,33.9-46.2,45.9-90c4.8-17.6,4.6-38.5,4.4-62.6l0-0.1
		c0-5.1-0.1-10.3-0.1-15.8c0-0.5-0.4-0.9-0.9-0.9H28.1z"/>
</g>
<path fill="#6E3B00" d="M104,112.5H59.7V88.3h43.9c0.7,0,1.3-0.6,1.3-1.3l0.4-25.1c0-0.4-0.1-0.7-0.4-0.9c-0.2-0.3-0.6-0.4-0.9-0.4
	H35.8c-0.4,0-0.7,0.1-0.9,0.4c-0.2,0.2-0.4,0.6-0.4,0.9l0.1,25.8c0,36.2,4.9,53.5,5.1,54.3c0.2,0.6,0.7,0.9,1.3,0.9h38.7v26H53.5
	c-0.5,0-0.9,0.2-1.1,0.6c-0.2,0.4-0.3,0.9,0,1.3c19.4,37.4,50.5,64.2,50.9,64.4c0.2,0.2,0.5,0.3,0.9,0.3c0.2,0,0.4,0,0.6-0.1
	c0.5-0.2,0.8-0.7,0.8-1.2V113.8C105.4,113.1,104.8,112.5,104,112.5z"/>
<g>
	<path fill="#5B9E09" d="M180,60.5h-66.5c-0.7,0-1.3,0.6-1.3,1.3l-0.7,172.4c0,0.5,0.3,1,0.7,1.2c0.2,0.1,0.4,0.2,0.6,0.2
		c0.3,0,0.5-0.1,0.8-0.2c10.1-7.2,24.4-26.4,25-27.2c0.2-0.2,0.3-0.5,0.3-0.8v-65.8h34.3c0.5,0,0.9-0.3,1.2-0.7
		c4.8-9.2,6-26,6.1-26.7c0-0.4-0.1-0.7-0.4-1c-0.2-0.3-0.6-0.4-1-0.4h-41.1V87.6H180c0.7,0,1.3-0.6,1.3-1.3V61.9
		C181.3,61.1,180.8,60.5,180,60.5z"/>
</g>
</svg>
